<?xml version="1.0" standalone="no"?>
<!DOCTYPE svg PUBLIC "-//W3C//DTD SVG 20010904//EN"
 "http://www.w3.org/TR/2001/REC-SVG-20010904/DTD/svg10.dtd">
<svg version="1.0" xmlns="http://www.w3.org/2000/svg"
 width="160.000000pt" height="160.000000pt" viewBox="0 0 160.000000 160.000000"
 preserveAspectRatio="xMidYMid meet">
<metadata>
Created by potrace 1.11, written by Peter Selinger 2001-2013
</metadata>
<g transform="translate(0.000000,160.000000) scale(0.100000,-0.100000)"
fill="#000000" stroke="none">
<path d="M395 1536 c-57 -21 -107 -82 -152 -188 -37 -86 -43 -94 -76 -103 -19
-5 -39 -13 -43 -17 -4 -5 -15 -8 -25 -8 -25 0 -52 -44 -44 -69 3 -11 14 -23
24 -26 16 -5 17 -11 10 -44 -5 -21 -5 -51 0 -69 6 -19 5 -34 -1 -40 -11 -11
-14 -122 -4 -166 10 -40 41 -100 74 -138 51 -58 51 -91 0 -112 l-28 -12 20
-22 c11 -12 33 -24 48 -28 54 -11 70 -23 82 -59 14 -43 10 -48 -33 -51 -48 -2
-88 -15 -127 -39 -61 -39 -65 -47 -69 -177 l-3 -118 706 0 c560 0 706 3 706
13 0 6 -4 27 -10 46 -10 36 -9 37 70 100 22 17 23 22 12 41 -7 11 -10 25 -7
30 9 15 -5 50 -19 50 -8 0 -12 9 -9 23 3 14 -3 29 -16 41 -12 11 -21 15 -22
10 -1 -5 -4 2 -8 16 -4 14 -16 29 -26 35 -14 7 -19 18 -17 37 4 35 -26 53 -55
33 -17 -12 -23 -10 -55 18 -20 18 -53 46 -74 62 -20 17 -48 40 -61 53 l-24 22
25 33 c71 93 76 245 11 341 -31 45 -31 47 0 74 45 39 26 74 -60 113 -61 28
-65 32 -119 123 -54 91 -121 163 -163 175 -21 5 -143 7 -193 2 -19 -2 -73 0
-120 3 -62 4 -96 2 -125 -8z m694 -937 c26 -28 17 -58 -10 -33 -11 9 -19 25
-19 36 0 23 5 23 29 -3z m92 -209 c-12 -8 -30 -68 -23 -75 4 -3 -1 -3 -11 1
-9 3 -17 10 -17 14 0 12 -95 50 -134 52 -20 2 -36 5 -36 8 0 3 5 22 10 42 11
40 34 58 72 58 13 0 36 9 52 19 l30 20 32 -67 c18 -37 29 -69 25 -72z"/>
</g>
</svg>
